<svg xmlns="http://www.w3.org/2000/svg" version="1.1" xmlns:xlink="http://www.w3.org/1999/xlink" xmlns:svgjs="http://svgjs.dev/svgjs" width="1000" height="809" viewBox="0 0 1000 809"><g transform="matrix(1,0,0,1,0.6816793955266007,0.0003198437432274659)"><svg viewBox="0 0 346 280" data-background-color="#ffffff" preserveAspectRatio="xMidYMid meet" height="809" width="1000" xmlns="http://www.w3.org/2000/svg" xmlns:xlink="http://www.w3.org/1999/xlink"><g id="tight-bounds" transform="matrix(1,0,0,1,-0.2358610708521951,0.00010979237893593563)"><svg viewBox="0 0 346.4717221417044 280" height="280" width="346.4717221417044"><g><svg viewBox="0 0 395.52 319.63820688000004" height="280" width="346.4717221417044"><g><svg viewBox="0 0 395.52 319.63820688000004" height="319.63820688000004" width="395.52"><g><svg viewBox="0 0 395.52 319.63820688000004" height="319.63820688000004" width="395.52"><g><svg viewBox="0 0 395.52 278.2696" height="278.2696" width="395.52"><g transform="matrix(1,0,0,1,104.53504196836558,73.54602628064397)"><svg viewBox="0 0 186.44991606326883 131.17754743871208" height="131.17754743871208" width="186.44991606326883"><g><circle r="66" cx="93.22495803163442" cy="65.58877371935604" fill="#ffc604" data-fill-palette-color="accent"></circle></g></svg></g><path d="M65.821 89.403V89.403L65.82 88.455C65.93 88.135 66.09 87.987 66.3 88.01V88.01C69.432 88.512 71.261 88.854 71.788 89.035 72.315 89.216 72.52 89.476 72.404 89.815V89.815C72.328 90.035 71.99 90.161 71.39 90.193 70.792 90.218 70.226 90.294 69.692 90.419 69.155 90.55 68.806 90.658 68.644 90.742 68.477 90.818 68.073 91.034 67.432 91.388V91.388C65.803 92.309 64.698 93.616 64.115 95.31 63.53 97.01 63.428 98.501 63.808 99.782 64.188 101.064 64.965 101.906 66.138 102.31 67.311 102.713 68.356 102.736 69.272 102.377 70.186 102.025 71.01 101.414 71.744 100.544 72.485 99.676 73.213 98.752 73.93 97.77V97.77C75.877 95.128 77.841 93.355 79.822 92.451V92.451C81.213 91.835 82.689 91.796 84.251 92.333V92.333C86.817 93.216 88.572 94.735 89.514 96.89 90.456 99.046 90.511 101.334 89.678 103.756V103.756C89.098 105.444 88.536 106.77 87.994 107.734 87.458 108.7 86.726 109.624 85.799 110.504V110.504C85.488 110.755 84.404 110.807 82.546 110.659 80.683 110.509 79.537 110.361 79.111 110.214 78.678 110.065 78.519 109.824 78.633 109.492 78.745 109.165 78.937 109.007 79.207 109.016V109.016C81.695 108.861 83.601 108.328 84.925 107.415V107.415C86.382 106.443 87.434 105.019 88.079 103.143 88.722 101.273 88.752 99.617 88.167 98.174 87.583 96.731 86.51 95.741 84.948 95.204V95.204C83.8 94.809 82.71 94.855 81.68 95.342 80.647 95.836 79.793 96.514 79.117 97.376V97.376C76.64 100.6 74.799 102.728 73.596 103.759V103.759C71.506 105.531 69.35 106.035 67.129 105.271 64.902 104.505 63.407 103.11 62.643 101.086 61.876 99.054 61.925 96.78 62.791 94.265V94.265C63.11 93.336 63.692 92.298 64.536 91.15 65.384 90.01 65.812 89.428 65.821 89.403ZM125.894 53.433L123.243 55.269 120.618 57.331C120.007 57.765 119.611 57.855 119.43 57.601V57.601C119.219 57.304 119.233 56.992 119.474 56.667V56.667C119.969 55.932 120.16 54.946 120.045 53.708 119.929 52.48 119.317 48.935 118.209 43.071 117.105 37.213 116.146 32.034 115.331 27.534V27.534C115.254 27.116 115.242 26.824 115.294 26.656 115.351 26.485 115.491 26.321 115.712 26.163 115.934 26.006 116.105 25.949 116.226 25.993 116.353 26.034 116.671 26.235 117.181 26.597 117.694 26.964 118.09 27.241 118.368 27.426 118.637 27.609 119.081 27.912 119.699 28.336 120.314 28.753 121.257 29.365 122.529 30.17 123.806 30.98 126.638 32.719 131.026 35.387 135.414 38.056 137.92 39.559 138.543 39.897 139.157 40.234 139.816 40.429 140.521 40.481 141.23 40.539 141.756 40.466 142.1 40.262 142.453 40.06 142.767 39.918 143.042 39.836 143.318 39.755 143.544 39.838 143.721 40.087V40.087C143.948 40.406 143.774 40.769 143.201 41.176V41.176L140.224 43 137.372 45.223C136.718 45.689 136.282 45.958 136.065 46.03 135.852 46.109 135.684 46.061 135.561 45.888 135.442 45.72 135.434 45.531 135.536 45.32 135.64 45.1 135.775 44.906 135.941 44.739 136.107 44.572 136.218 44.35 136.274 44.074 136.33 43.798 136.228 43.477 135.966 43.109 135.705 42.741 134.803 42.027 133.259 40.967 131.707 39.906 130.514 39.167 129.68 38.75V38.75C129.237 38.528 128.678 38.657 128.002 39.137V39.137L124.222 41.91 122.543 43.104C121.596 43.777 121.04 44.254 120.874 44.535 120.703 44.811 120.661 45.175 120.746 45.627 120.828 46.073 120.933 46.703 121.063 47.514 121.192 48.326 121.288 48.885 121.351 49.19 121.408 49.5 121.49 49.885 121.598 50.345V50.345C121.772 51.174 122.009 51.799 122.309 52.221 122.609 52.643 122.971 52.894 123.395 52.975 123.815 53.051 124.189 53.005 124.517 52.837V52.837C125.342 52.348 125.874 52.271 126.112 52.606V52.606C126.22 52.758 126.266 52.892 126.251 53.008 126.24 53.13 126.121 53.272 125.894 53.433ZM118.051 31.84C117.862 31.974 118.088 33.564 118.73 36.608 119.376 39.657 119.789 41.309 119.97 41.563 120.147 41.812 120.353 41.901 120.588 41.832 120.823 41.762 121.29 41.479 121.987 40.983V40.983L122.969 40.285 125.947 38.119C126.769 37.535 127.07 37.089 126.851 36.78 126.636 36.478 125.183 35.528 122.493 33.932 119.807 32.341 118.327 31.644 118.051 31.84ZM191.716 14.272L191.624 12.064 191.491 7.876 191.417 6.096C191.37 4.963 191.286 4.053 191.165 3.368 191.044 2.689 190.675 2.193 190.057 1.88 189.434 1.573 188.827 1.419 188.235 1.417 187.638 1.415 187.331 1.225 187.315 0.848 187.3 0.476 187.654 0.276 188.376 0.246V0.246L192.758 0.214 196.165 0.003C196.868-0.026 197.227 0.139 197.242 0.497V0.497C197.25 0.702 196.668 1.075 195.495 1.615V1.615C194.687 1.987 194.338 3.492 194.447 6.13V6.13L194.921 20.474C195.01 22.642 195.378 24.154 196.025 25.01 196.664 25.86 197.319 26.271 197.988 26.244V26.244L198.766 26.251C198.951 26.244 199.135 26.283 199.318 26.368 199.501 26.447 199.596 26.589 199.605 26.794V26.794C199.62 27.159 199.306 27.355 198.663 27.381V27.381L194.977 27.374 190.72 27.75C189.56 27.798 188.971 27.626 188.955 27.235V27.235C188.94 26.877 189.329 26.629 190.12 26.49V26.49C190.43 26.45 190.748 26.278 191.074 25.972 191.393 25.66 191.592 25.313 191.669 24.932 191.746 24.556 191.784 22.991 191.783 20.235 191.789 17.479 191.766 15.491 191.716 14.272ZM253.367 30.149L255.961 25.636 257.979 21.964 258.867 20.42C259.525 19.275 259.966 18.427 260.192 17.875 260.426 17.321 260.374 16.752 260.037 16.167 259.696 15.589 259.276 15.141 258.777 14.824 258.273 14.503 258.108 14.19 258.283 13.886 258.455 13.586 258.855 13.617 259.482 13.977V13.977L263.244 16.22 266.177 17.826C266.557 18.044 266.664 18.297 266.499 18.585V18.585C266.42 18.723 266.178 18.764 265.774 18.707 265.373 18.66 265.085 18.629 264.91 18.613V18.613C263.989 18.619 262.857 19.789 261.514 22.125V22.125L258.396 27.311C258.128 27.777 258.083 28.061 258.261 28.164 258.44 28.266 259.73 28.124 262.133 27.738 264.534 27.342 266.991 26.83 269.503 26.2 272.015 25.57 273.414 25.008 273.698 24.513V24.513C273.853 24.242 273.847 23.994 273.679 23.767 273.514 23.535 273.382 23.371 273.284 23.276 273.194 23.179 273.059 23.055 272.877 22.905 272.69 22.751 272.583 22.651 272.556 22.605V22.605C272.335 22.417 272.297 22.196 272.443 21.943 272.592 21.685 272.844 21.658 273.201 21.863V21.863L274.027 22.383 276.003 23.599 280.233 25.904C280.682 26.162 280.824 26.435 280.658 26.723V26.723C280.566 26.884 280.429 26.962 280.248 26.957 280.069 26.962 279.759 26.91 279.316 26.801 278.865 26.694 278.521 26.627 278.285 26.598 278.052 26.564 277.264 26.577 275.92 26.639V26.639C275.639 26.661 274.009 26.941 271.029 27.479 268.05 28.016 264.914 28.579 261.623 29.166V29.166L260.984 29.419C260.918 29.534 261.023 30.103 261.299 31.127 261.576 32.15 262.231 34.539 263.264 38.294 264.297 42.048 265.052 44.575 265.53 45.875 266.004 47.18 266.58 48.101 267.26 48.637 267.93 49.175 268.26 49.56 268.249 49.791V49.791C268.246 49.85 268.203 49.952 268.12 50.096 268.034 50.245 267.882 50.284 267.663 50.212 267.447 50.149 266.881 49.854 265.967 49.329V49.329L262.705 47.454C262.343 47.246 262.134 46.984 262.078 46.669 262.022 46.353 261.956 46.055 261.88 45.774V45.774C261.601 44.329 261.366 43.253 261.176 42.546V42.546C259.195 34.995 258.139 31.047 258.007 30.704V30.704C257.881 30.364 257.726 30.141 257.542 30.035V30.035C257.231 29.856 256.902 30.069 256.555 30.673V30.673L256.496 30.777 256.084 31.573 255.097 33.29C253.411 36.224 252.568 38.13 252.567 39.01 252.567 39.89 253.104 40.639 254.18 41.257V41.257L254.427 41.445C254.589 41.538 254.724 41.669 254.833 41.839 254.945 42.003 254.95 42.174 254.847 42.352V42.352C254.666 42.669 254.296 42.667 253.738 42.346V42.346L250.624 40.373 246.824 38.418C246.018 37.955 245.687 37.6 245.829 37.353V37.353L245.908 37.215C245.998 37.059 246.163 37.005 246.404 37.052V37.052C247.348 37.327 248.022 37.412 248.426 37.307 248.834 37.197 249.401 36.597 250.127 35.507 250.859 34.42 251.939 32.634 253.367 30.149ZM309.776 78.671V78.671C313.734 76.876 317.518 76.594 321.13 77.826 324.741 79.058 327.535 81.852 329.511 86.209V86.209C330.43 88.233 330.961 90.192 331.107 92.086 331.258 93.977 331.118 95.589 330.688 96.92 330.258 98.252 329.63 99.487 328.806 100.626V100.626C327.381 102.606 325.749 104.013 323.913 104.846V104.846C320.71 106.299 317.717 106.903 314.932 106.658V106.658C309.667 106.183 305.763 103.142 303.22 97.535V97.535C301.948 94.731 301.461 92.035 301.757 89.445 302.06 86.852 302.925 84.657 304.353 82.858 305.781 81.059 307.589 79.663 309.776 78.671ZM312.99 80.961V80.961C310.893 81.913 309.004 83.44 307.321 85.544V85.544C306.408 86.665 305.676 87.853 305.124 89.109 304.574 90.371 304.291 91.778 304.274 93.33 304.254 94.891 304.59 96.436 305.284 97.965V97.965C306.073 99.705 307.36 101.194 309.146 102.431V102.431C311.106 103.814 313.25 104.445 315.577 104.322V104.322C316.843 104.287 318.099 103.987 319.343 103.422V103.422C323.609 101.487 326.416 98.866 327.764 95.558 329.119 92.248 329.047 88.944 327.551 85.645V85.645C326.378 83.059 324.506 81.245 321.935 80.204 319.361 79.171 316.379 79.424 312.99 80.961ZM101.035 187.71V187.71L101.631 188.462C101.744 188.788 101.709 189.011 101.525 189.131V189.131C98.707 190.686 97.031 191.556 96.498 191.74 95.965 191.924 95.638 191.84 95.517 191.489V191.489C95.441 191.269 95.633 190.961 96.092 190.564 96.552 190.166 96.956 189.75 97.303 189.314 97.651 188.878 97.866 188.576 97.948 188.407 98.031 188.238 98.217 187.812 98.508 187.13V187.13C99.238 185.382 99.306 183.646 98.711 181.922 98.115 180.197 97.265 178.943 96.159 178.159 95.053 177.376 93.908 177.189 92.723 177.598 91.531 178.009 90.68 178.644 90.168 179.501 89.663 180.356 89.389 181.36 89.344 182.512 89.293 183.667 89.288 184.862 89.329 186.097V186.097C89.423 189.42 88.962 192.06 87.946 194.018V194.018C87.222 195.377 86.066 196.33 84.48 196.878V196.878C81.877 197.776 79.528 197.66 77.432 196.531 75.335 195.395 73.862 193.597 73.013 191.139V191.139C72.424 189.433 72.041 188.028 71.864 186.924 71.692 185.818 71.704 184.621 71.898 183.333V183.333C71.98 182.94 72.812 182.221 74.396 181.176 75.98 180.131 76.988 179.534 77.42 179.384 77.853 179.235 78.128 179.33 78.245 179.668 78.36 180.001 78.308 180.247 78.089 180.406V180.406C76.197 182.084 75.008 183.702 74.521 185.26V185.26C73.966 186.946 74.016 188.736 74.669 190.63 75.325 192.531 76.337 193.877 77.705 194.668 79.071 195.453 80.547 195.571 82.134 195.024V195.024C83.294 194.623 84.135 193.905 84.654 192.869 85.166 191.829 85.426 190.753 85.435 189.641V189.641C85.396 185.521 85.535 182.672 85.854 181.095V181.095C86.411 178.376 87.818 176.627 90.076 175.848 92.334 175.068 94.4 175.25 96.276 176.393 98.157 177.533 99.539 179.379 100.42 181.932V181.932C100.744 182.873 100.925 184.067 100.961 185.514 101.002 186.953 101.026 187.685 101.035 187.71ZM116.181 249.181L113.542 247.258 110.691 245.429C110.069 244.987 109.85 244.636 110.035 244.377V244.377C110.246 244.079 110.55 243.99 110.946 244.108V244.108C111.813 244.342 112.819 244.197 113.963 243.675 115.107 243.153 118.3 241.384 123.542 238.369 128.784 235.354 133.424 232.705 137.462 230.422V230.422C137.835 230.206 138.111 230.097 138.292 230.095 138.472 230.093 138.673 230.171 138.895 230.329 139.122 230.49 139.238 230.637 139.241 230.77 139.245 230.902 139.155 231.274 138.974 231.886 138.797 232.501 138.667 232.97 138.584 233.293 138.492 233.618 138.35 234.144 138.159 234.871 137.959 235.6 137.683 236.71 137.332 238.202 136.984 239.689 136.266 242.979 135.179 248.074 134.082 253.171 133.474 256.071 133.356 256.777 133.247 257.48 133.284 258.178 133.468 258.87 133.648 259.568 133.892 260.05 134.199 260.317 134.506 260.584 134.748 260.833 134.925 261.065 135.093 261.298 135.085 261.544 134.9 261.804V261.804C134.674 262.123 134.274 262.079 133.7 261.672V261.672L130.95 259.426 127.872 257.435C127.212 256.966 126.809 256.639 126.664 256.455 126.523 256.274 126.513 256.1 126.632 255.932 126.755 255.759 126.935 255.683 127.172 255.705 127.414 255.73 127.639 255.797 127.848 255.904 128.066 256.01 128.319 256.043 128.607 256.004 128.89 255.961 129.164 255.753 129.429 255.379 129.694 255.006 130.076 253.902 130.574 252.066 131.077 250.235 131.387 248.848 131.503 247.905V247.905C131.571 247.408 131.261 246.915 130.574 246.428V246.428L126.65 243.738 124.954 242.534C123.991 241.85 123.349 241.471 123.027 241.397 122.707 241.332 122.344 241.413 121.94 241.638 121.537 241.873 120.969 242.186 120.236 242.577 119.505 242.976 119.002 243.254 118.729 243.41 118.452 243.571 118.111 243.781 117.708 244.04V244.04C116.969 244.484 116.448 244.92 116.145 245.347 115.841 245.774 115.724 246.203 115.792 246.634 115.851 247.067 116.017 247.412 116.289 247.671V247.671C117.036 248.291 117.287 248.774 117.041 249.121V249.121C116.938 249.267 116.826 249.354 116.708 249.384 116.589 249.414 116.413 249.346 116.181 249.181ZM134.25 234.463C134.061 234.329 132.613 235.079 129.906 236.713 127.199 238.346 125.756 239.291 125.575 239.545 125.395 239.799 125.379 240.028 125.527 240.231 125.671 240.43 126.097 240.782 126.805 241.285V241.285L127.795 241.988 130.869 244.122C131.702 244.714 132.228 244.856 132.447 244.547 132.666 244.239 133.09 242.53 133.72 239.421 134.349 236.312 134.526 234.659 134.25 234.463ZM192.052 264.432L192.146 262.195 192.364 257.951 192.44 256.141C192.488 254.994 192.48 254.071 192.416 253.371 192.36 252.671 192.03 252.139 191.428 251.775 190.826 251.405 190.223 251.194 189.621 251.142 189.019 251.09 188.726 250.875 188.742 250.497 188.758 250.119 189.134 249.946 189.869 249.977V249.977L194.298 250.322 197.761 250.388C198.47 250.417 198.817 250.615 198.802 250.979V250.979C198.793 251.191 198.175 251.521 196.948 251.967V251.967C196.098 252.27 195.618 253.757 195.506 256.429V256.429L194.776 270.971C194.683 273.172 194.927 274.729 195.506 275.643 196.079 276.557 196.706 277.028 197.389 277.057V277.057L198.173 277.13C198.359 277.138 198.542 277.192 198.724 277.292 198.899 277.393 198.982 277.549 198.973 277.761V277.761C198.958 278.126 198.622 278.294 197.966 278.267V278.267L194.244 277.951 189.91 277.968C188.73 277.919 188.148 277.699 188.165 277.308V277.308C188.18 276.936 188.598 276.718 189.417 276.653V276.653C189.73 276.639 190.065 276.488 190.423 276.197 190.773 275.913 191.003 275.581 191.112 275.2 191.221 274.826 191.393 273.246 191.63 270.46 191.859 267.674 192 265.665 192.052 264.432ZM250.919 255.297L248.299 250.719 246.12 247.07 245.22 245.498C244.558 244.34 244.045 243.518 243.682 243.03 243.313 242.545 242.788 242.303 242.107 242.303 241.424 242.296 240.813 242.432 240.276 242.709 239.739 242.985 239.383 242.971 239.208 242.666 239.033 242.361 239.266 242.025 239.905 241.659V241.659L243.797 239.524 246.694 237.775C247.08 237.554 247.357 237.59 247.525 237.884V237.884C247.604 238.022 247.519 238.254 247.27 238.58 247.018 238.901 246.842 239.135 246.743 239.283V239.283C246.275 240.094 246.718 241.683 248.072 244.05V244.05L251.018 249.439C251.291 249.917 251.517 250.105 251.696 250.002 251.88 249.897 252.414 248.693 253.298 246.391 254.188 244.085 255.001 241.671 255.736 239.148 256.465 236.629 256.687 235.119 256.4 234.618V234.618C256.245 234.347 256.026 234.224 255.742 234.249 255.452 234.277 255.24 234.307 255.105 234.338 254.976 234.366 254.798 234.422 254.571 234.507 254.344 234.591 254.205 234.636 254.155 234.641V234.641C253.875 234.74 253.659 234.657 253.508 234.392 253.359 234.133 253.467 233.9 253.83 233.692V233.692L254.705 233.237 256.791 232.135 260.965 229.61C261.42 229.349 261.731 229.366 261.899 229.66V229.66C261.991 229.821 261.994 229.98 261.908 230.136 261.813 230.29 261.605 230.535 261.285 230.871 260.965 231.207 260.73 231.471 260.581 231.664 260.431 231.857 260.036 232.556 259.397 233.763V233.763C259.274 234.017 258.685 235.585 257.628 238.467 256.575 241.356 255.463 244.388 254.292 247.565V247.565L254.192 248.253C254.258 248.368 254.809 248.569 255.844 248.856 256.882 249.133 259.309 249.782 263.126 250.801 266.942 251.82 269.541 252.454 270.922 252.704 272.306 252.959 273.406 252.93 274.22 252.617 275.037 252.294 275.542 252.201 275.733 252.336V252.336C275.783 252.368 275.85 252.46 275.936 252.609 276.018 252.753 275.978 252.903 275.814 253.058 275.645 253.216 275.093 253.562 274.161 254.095V254.095L270.852 255.988C270.489 256.196 270.155 256.246 269.849 256.138 269.539 256.025 269.242 255.927 268.959 255.845V255.845C267.552 255.35 266.491 255.006 265.776 254.811V254.811C258.158 252.68 254.163 251.583 253.791 251.521V251.521C253.425 251.455 253.15 251.475 252.966 251.58V251.58C252.649 251.762 252.667 252.16 253.019 252.777V252.777L253.079 252.88 253.563 253.647 254.556 255.383C256.263 258.366 257.502 260.084 258.274 260.537 259.042 260.984 259.973 260.895 261.067 260.269V260.269L261.355 260.15C261.516 260.058 261.7 260.006 261.907 259.994 262.109 259.986 262.263 260.074 262.368 260.258V260.258C262.549 260.575 262.355 260.896 261.785 261.222V261.222L258.466 262.938 254.808 265.26C253.99 265.728 253.509 265.835 253.364 265.582V265.582L253.289 265.453C253.197 265.291 253.235 265.117 253.403 264.929V264.929C254.128 264.246 254.545 263.699 254.652 263.285 254.769 262.875 254.538 262.07 253.96 260.872 253.375 259.678 252.362 257.819 250.919 255.297ZM300.605 206.66V206.66C296.598 204.83 293.861 202.126 292.396 198.546 290.93 194.967 291.205 190.971 293.219 186.56V186.56C294.156 184.508 295.299 182.794 296.649 181.419 297.999 180.044 299.326 179.079 300.631 178.522 301.941 177.968 303.302 177.623 304.714 177.487V177.487C307.179 177.263 309.344 177.577 311.209 178.428V178.428C314.45 179.908 316.905 181.791 318.574 184.078V184.078C321.718 188.423 321.993 193.436 319.4 199.115V199.115C318.105 201.952 316.367 204.119 314.187 205.619 312.002 207.115 309.747 207.916 307.423 208.022 305.099 208.128 302.826 207.674 300.605 206.66ZM300.224 202.679V202.679C302.343 203.646 304.767 204.078 307.498 203.976V203.976C308.966 203.924 310.365 203.687 311.695 203.266 313.022 202.851 314.287 202.134 315.489 201.115 316.688 200.087 317.641 198.797 318.349 197.246V197.246C319.154 195.484 319.436 193.508 319.195 191.32V191.32C318.95 188.903 318.004 186.844 316.359 185.145V185.145C315.491 184.202 314.423 183.441 313.156 182.862V182.862C308.841 180.892 304.968 180.491 301.539 181.661 298.101 182.833 295.62 185.088 294.096 188.426V188.426C292.897 191.051 292.76 193.691 293.685 196.345 294.604 198.997 296.784 201.108 300.224 202.679ZM62.713 144.492C62.713 138.567 67.516 133.764 73.441 133.764 79.367 133.764 84.17 138.567 84.17 144.492 84.17 150.417 79.367 155.22 73.441 155.22 67.516 155.22 62.713 150.417 62.713 144.492ZM311.961 144.492C311.961 138.567 316.764 133.764 322.689 133.764 328.614 133.764 333.418 138.567 333.418 144.492 333.418 150.417 328.614 155.22 322.689 155.22 316.764 155.22 311.961 150.417 311.961 144.492Z" fill="#3d3839" data-fill-palette-color="primary"></path></svg></g><g transform="matrix(1,0,0,1,75.54432000000001,295.46666128000004)"><svg viewBox="0 0 244.43135999999996 24.171545599999998" height="24.171545599999998" width="244.43135999999996"><g transform="matrix(1,0,0,1,0,0)"><svg width="244.43135999999996" viewBox="3.75 -35 359.9700012207031 35.599998474121094" height="24.171545599999998" data-palette-color="#ffc604"><path d="M19-25L19-25Q25.65-25 25.65-18.3L25.65-18.3 25.65 0 20.75 0 20.75-16.9Q20.75-19.2 20.03-20.08 19.3-20.95 17.5-20.95L17.5-20.95Q15.35-20.95 13.2-19.98 11.05-19 8.05-17.1L8.05-17.1 7.8-20.3Q10.6-22.5 13.43-23.75 16.25-25 19-25ZM3.75-35L8.55-35 8.6-25.55Q8.6-23.85 8.47-22.35 8.35-20.85 8.05-19.7L8.05-19.7 8.55-19 8.55 0 3.75 0 3.75-35ZM43.3-25L43.3-25Q48.95-25 51.47-22.98 54-20.95 54-17L54-17Q54.05-13.7 52.57-11.9 51.1-10.1 47.8-10.1L47.8-10.1 33.7-10.1 33.7-13.55 46.55-13.55Q48.2-13.55 48.7-14.6 49.2-15.65 49.2-17L49.2-17Q49.15-19.25 47.87-20.2 46.6-21.15 43.5-21.15L43.5-21.15Q40.95-21.15 39.5-20.4 38.05-19.65 37.47-17.8 36.9-15.95 36.9-12.6L36.9-12.6Q36.9-8.85 37.62-6.88 38.35-4.9 39.97-4.15 41.6-3.4 44.3-3.4L44.3-3.4Q46.2-3.4 48.57-3.58 50.95-3.75 52.9-4L52.9-4 53.4-0.85Q52.2-0.35 50.5-0.03 48.8 0.3 47 0.45 45.2 0.6 43.7 0.6L43.7 0.6Q39.4 0.6 36.8-0.7 34.2-2 33-4.83 31.8-7.65 31.8-12.25L31.8-12.25Q31.8-17.05 33-19.85 34.2-22.65 36.75-23.83 39.3-25 43.3-25ZM75.34-25L75.34-25Q82-25 82-18.3L82-18.3 82 0 77.09 0 77.09-16.9Q77.09-19.2 76.37-20.08 75.64-20.95 73.84-20.95L73.84-20.95Q71.69-20.95 69.55-19.98 67.39-19 64.39-17.1L64.39-17.1 64.14-20.3Q66.94-22.5 69.77-23.75 72.59-25 75.34-25ZM60.09-35L64.89-35 64.94-25.55Q64.94-23.85 64.82-22.35 64.69-20.85 64.39-19.7L64.39-19.7 64.89-19 64.89 0 60.09 0 60.09-35ZM99.64-25L99.64-25Q105.29-25 107.82-22.98 110.34-20.95 110.34-17L110.34-17Q110.39-13.7 108.92-11.9 107.44-10.1 104.14-10.1L104.14-10.1 90.04-10.1 90.04-13.55 102.89-13.55Q104.54-13.55 105.04-14.6 105.54-15.65 105.54-17L105.54-17Q105.49-19.25 104.22-20.2 102.94-21.15 99.84-21.15L99.84-21.15Q97.29-21.15 95.84-20.4 94.39-19.65 93.82-17.8 93.24-15.95 93.24-12.6L93.24-12.6Q93.24-8.85 93.97-6.88 94.69-4.9 96.32-4.15 97.94-3.4 100.64-3.4L100.64-3.4Q102.54-3.4 104.92-3.58 107.29-3.75 109.24-4L109.24-4 109.74-0.85Q108.54-0.35 106.84-0.03 105.14 0.3 103.34 0.45 101.54 0.6 100.04 0.6L100.04 0.6Q95.74 0.6 93.14-0.7 90.54-2 89.34-4.83 88.14-7.65 88.14-12.25L88.14-12.25Q88.14-17.05 89.34-19.85 90.54-22.65 93.09-23.83 95.64-25 99.64-25ZM131.69-25L131.69-25Q138.34-25 138.34-18.3L138.34-18.3 138.34 0 133.44 0 133.44-16.9Q133.44-19.2 132.72-20.08 131.99-20.95 130.19-20.95L130.19-20.95Q128.04-20.95 125.89-19.98 123.74-19 120.74-17.1L120.74-17.1 120.49-20.3Q123.29-22.5 126.11-23.75 128.94-25 131.69-25ZM116.44-35L121.24-35 121.29-25.55Q121.29-23.85 121.16-22.35 121.04-20.85 120.74-19.7L120.74-19.7 121.24-19 121.24 0 116.44 0 116.44-35ZM155.99-25L155.99-25Q161.64-25 164.16-22.98 166.69-20.95 166.69-17L166.69-17Q166.74-13.7 165.26-11.9 163.79-10.1 160.49-10.1L160.49-10.1 146.39-10.1 146.39-13.55 159.24-13.55Q160.89-13.55 161.39-14.6 161.89-15.65 161.89-17L161.89-17Q161.84-19.25 160.56-20.2 159.29-21.15 156.19-21.15L156.19-21.15Q153.64-21.15 152.19-20.4 150.74-19.65 150.16-17.8 149.59-15.95 149.59-12.6L149.59-12.6Q149.59-8.85 150.31-6.88 151.04-4.9 152.66-4.15 154.29-3.4 156.99-3.4L156.99-3.4Q158.89-3.4 161.26-3.58 163.64-3.75 165.59-4L165.59-4 166.09-0.85Q164.89-0.35 163.19-0.03 161.49 0.3 159.69 0.45 157.89 0.6 156.39 0.6L156.39 0.6Q152.09 0.6 149.49-0.7 146.89-2 145.69-4.83 144.49-7.65 144.49-12.25L144.49-12.25Q144.49-17.05 145.69-19.85 146.89-22.65 149.44-23.83 151.99-25 155.99-25ZM188.03-25L188.03-25Q194.69-25 194.69-18.3L194.69-18.3 194.69 0 189.78 0 189.78-16.9Q189.78-19.2 189.06-20.08 188.34-20.95 186.53-20.95L186.53-20.95Q184.38-20.95 182.23-19.98 180.09-19 177.09-17.1L177.09-17.1 176.84-20.3Q179.63-22.5 182.46-23.75 185.28-25 188.03-25ZM172.78-35L177.59-35 177.63-25.55Q177.63-23.85 177.51-22.35 177.38-20.85 177.09-19.7L177.09-19.7 177.59-19 177.59 0 172.78 0 172.78-35ZM212.33-25L212.33-25Q217.98-25 220.51-22.98 223.03-20.95 223.03-17L223.03-17Q223.08-13.7 221.61-11.9 220.13-10.1 216.83-10.1L216.83-10.1 202.73-10.1 202.73-13.55 215.58-13.55Q217.23-13.55 217.73-14.6 218.23-15.65 218.23-17L218.23-17Q218.18-19.25 216.91-20.2 215.63-21.15 212.53-21.15L212.53-21.15Q209.98-21.15 208.53-20.4 207.08-19.65 206.51-17.8 205.93-15.95 205.93-12.6L205.93-12.6Q205.93-8.85 206.66-6.88 207.38-4.9 209.01-4.15 210.63-3.4 213.33-3.4L213.33-3.4Q215.23-3.4 217.61-3.58 219.98-3.75 221.93-4L221.93-4 222.43-0.85Q221.23-0.35 219.53-0.03 217.83 0.3 216.03 0.45 214.23 0.6 212.73 0.6L212.73 0.6Q208.43 0.6 205.83-0.7 203.23-2 202.03-4.83 200.83-7.65 200.83-12.25L200.83-12.25Q200.83-17.05 202.03-19.85 203.23-22.65 205.78-23.83 208.33-25 212.33-25ZM244.38-25L244.38-25Q251.03-25 251.03-18.3L251.03-18.3 251.03 0 246.13 0 246.13-16.9Q246.13-19.2 245.41-20.08 244.68-20.95 242.88-20.95L242.88-20.95Q240.73-20.95 238.58-19.98 236.43-19 233.43-17.1L233.43-17.1 233.18-20.3Q235.98-22.5 238.81-23.75 241.63-25 244.38-25ZM229.13-35L233.93-35 233.98-25.55Q233.98-23.85 233.85-22.35 233.73-20.85 233.43-19.7L233.43-19.7 233.93-19 233.93 0 229.13 0 229.13-35ZM268.68-25L268.68-25Q274.33-25 276.85-22.98 279.38-20.95 279.38-17L279.38-17Q279.43-13.7 277.95-11.9 276.48-10.1 273.18-10.1L273.18-10.1 259.08-10.1 259.08-13.55 271.93-13.55Q273.58-13.55 274.08-14.6 274.58-15.65 274.58-17L274.58-17Q274.53-19.25 273.25-20.2 271.98-21.15 268.88-21.15L268.88-21.15Q266.33-21.15 264.88-20.4 263.43-19.65 262.85-17.8 262.28-15.95 262.28-12.6L262.28-12.6Q262.28-8.85 263-6.88 263.73-4.9 265.35-4.15 266.98-3.4 269.68-3.4L269.68-3.4Q271.58-3.4 273.95-3.58 276.33-3.75 278.28-4L278.28-4 278.78-0.85Q277.58-0.35 275.88-0.03 274.18 0.3 272.38 0.45 270.58 0.6 269.08 0.6L269.08 0.6Q264.78 0.6 262.18-0.7 259.58-2 258.38-4.83 257.18-7.65 257.18-12.25L257.18-12.25Q257.18-17.05 258.38-19.85 259.58-22.65 262.13-23.83 264.68-25 268.68-25ZM300.73-25L300.73-25Q307.38-25 307.38-18.3L307.38-18.3 307.38 0 302.48 0 302.48-16.9Q302.48-19.2 301.75-20.08 301.03-20.95 299.23-20.95L299.23-20.95Q297.08-20.95 294.93-19.98 292.78-19 289.78-17.1L289.78-17.1 289.53-20.3Q292.33-22.5 295.15-23.75 297.98-25 300.73-25ZM285.48-35L290.28-35 290.33-25.55Q290.33-23.85 290.2-22.35 290.08-20.85 289.78-19.7L289.78-19.7 290.28-19 290.28 0 285.48 0 285.48-35ZM325.02-25L325.02-25Q330.67-25 333.2-22.98 335.72-20.95 335.72-17L335.72-17Q335.77-13.7 334.3-11.9 332.82-10.1 329.52-10.1L329.52-10.1 315.42-10.1 315.42-13.55 328.27-13.55Q329.92-13.55 330.42-14.6 330.92-15.65 330.92-17L330.92-17Q330.87-19.25 329.6-20.2 328.32-21.15 325.22-21.15L325.22-21.15Q322.67-21.15 321.22-20.4 319.77-19.65 319.2-17.8 318.62-15.95 318.62-12.6L318.62-12.6Q318.62-8.85 319.35-6.88 320.07-4.9 321.7-4.15 323.32-3.4 326.02-3.4L326.02-3.4Q327.92-3.4 330.3-3.58 332.67-3.75 334.62-4L334.62-4 335.12-0.85Q333.92-0.35 332.22-0.03 330.52 0.3 328.72 0.45 326.92 0.6 325.42 0.6L325.42 0.6Q321.12 0.6 318.52-0.7 315.92-2 314.72-4.83 313.52-7.65 313.52-12.25L313.52-12.25Q313.52-17.05 314.72-19.85 315.92-22.65 318.47-23.83 321.02-25 325.02-25ZM357.07-25L357.07-25Q363.72-25 363.72-18.3L363.72-18.3 363.72 0 358.82 0 358.82-16.9Q358.82-19.2 358.1-20.08 357.37-20.95 355.57-20.95L355.57-20.95Q353.42-20.95 351.27-19.98 349.12-19 346.12-17.1L346.12-17.1 345.87-20.3Q348.67-22.5 351.5-23.75 354.32-25 357.07-25ZM341.82-35L346.62-35 346.67-25.55Q346.67-23.85 346.55-22.35 346.42-20.85 346.12-19.7L346.12-19.7 346.62-19 346.62 0 341.82 0 341.82-35Z" opacity="1" transform="matrix(1,0,0,1,0,0)" fill="#ffc604" class="undefined-text-1" data-fill-palette-color="secondary" id="text-1"></path></svg></g></svg></g></svg></g></svg></g></svg></g><defs></defs></svg><rect width="346.4717221417044" height="280" fill="none" stroke="none" visibility="hidden"></rect></g></svg></g></svg>